<svg height="429pt" viewBox="-105 0 429 429.30061" width="429pt" xmlns="http://www.w3.org/2000/svg"><path d="m109.378906 429.300781c-54.28125 0-109.230468-14.070312-109.230468-40.960937v-34.132813c0-3.769531 3.058593-6.828125 6.828124-6.828125 3.769532 0 6.828126 3.058594 6.828126 6.828125v34.132813c0 11.132812 37.226562 27.308594 95.574218 27.308594 58.34375 0 95.570313-16.175782 95.570313-27.308594v-34.132813c0-3.769531 3.058593-6.828125 6.828125-6.828125 3.769531 0 6.828125 3.058594 6.828125 6.828125v34.132813c0 26.890625-54.949219 40.960937-109.226563 40.960937zm0 0"/><path d="m109.378906 395.167969c-54.28125 0-109.230468-14.070313-109.230468-40.960938v-211.625c0-3.769531 3.058593-6.828125 6.828124-6.828125 3.769532 0 6.828126 3.058594 6.828126 6.828125v211.625c0 11.132813 37.226562 27.308594 95.574218 27.308594 58.34375 0 95.570313-16.175781 95.570313-27.308594v-211.625c0-3.769531 3.058593-6.828125 6.828125-6.828125 3.769531 0 6.828125 3.058594 6.828125 6.828125v211.625c0 26.890625-54.949219 40.960938-109.226563 40.960938zm0 0"/><path d="m109.378906 313.246094c-16.347656 0-31.34375-5.761719-40.117187-15.414063-2.535157-2.792969-2.328125-7.109375.460937-9.644531 2.792969-2.535156 7.117188-2.324219 9.644532.460938 6.132812 6.753906 17.632812 10.945312 30.007812 10.945312 12.238281 0 23.671875-4.125 29.84375-10.765625 2.566406-2.761719 6.890625-2.914063 9.644531-.351563 2.765625 2.566407 2.921875 6.886719.355469 9.644532-8.800781 9.472656-23.691406 15.125-39.839844 15.125zm0 0"/><path d="m61.589844 244.980469c0 7.539062-6.113282 13.652343-13.652344 13.652343-7.542969 0-13.652344-6.113281-13.652344-13.652343 0-7.539063 6.109375-13.652344 13.652344-13.652344 7.539062 0 13.652344 6.113281 13.652344 13.652344zm0 0"/><path d="m184.46875 244.980469c0 7.539062-6.109375 13.652343-13.652344 13.652343-7.539062 0-13.652344-6.113281-13.652344-13.652343 0-7.539063 6.113282-13.652344 13.652344-13.652344 7.542969 0 13.652344 6.113281 13.652344 13.652344zm0 0"/><path d="m201.695312 119.722656c8.011719 12.257813 11.417969 21.15625 8.410157 24.164063-5.707031 5.703125-32.535157-11.582031-63.554688-39.976563-11.972656-1.5-24.578125-2.292968-37.171875-2.292968-54.28125 0-109.230468 14.070312-109.230468 40.960937s54.949218 40.960937 109.230468 40.960937c54.277344 0 109.226563-14.070312 109.226563-40.960937 0-9.121094-6.429688-16.730469-16.910157-22.855469zm-153.753906 36.511719c-2.003906 0-3.988281-.878906-5.335937-2.558594-2.355469-2.949219-1.878907-7.242187 1.066406-9.597656l34.136719-27.308594c2.941406-2.355469 7.242187-1.878906 9.589844 1.0625 2.359374 2.949219 1.882812 7.242188-1.066407 9.597657l-34.132812 27.308593c-1.253907 1.007813-2.761719 1.496094-4.257813 1.496094zm45.21875 5.328125c-1.257812 1.011719-2.761718 1.5-4.261718 1.5-2 0-3.984376-.878906-5.332032-2.5625-2.355468-2.945312-1.878906-7.238281 1.066406-9.597656l34.132813-27.304688c2.9375-2.355468 7.242187-1.878906 9.59375 1.0625 2.359375 2.949219 1.882813 7.238282-1.066406 9.597656zm75.09375-20.480469-34.132812 27.308594c-1.257813 1.011719-2.765625 1.496094-4.261719 1.496094-2.003906 0-3.984375-.875-5.332031-2.558594-2.355469-2.949219-1.882813-7.242187 1.066406-9.597656l34.132812-27.304688c2.941407-2.359375 7.238282-1.878906 9.59375 1.0625 2.355469 2.945313 1.878907 7.238281-1.066406 9.59375zm0 0"/><path d="m207.339844 151.535156c-21.667969 0-67.34375-43.789062-82.339844-58.785156-17.113281-17.113281-71.71875-74.171875-55.964844-89.929688 15.777344-15.757812 72.816406 38.851563 89.929688 55.964844 18.46875 18.46875 34.589844 37.164063 45.382812 52.652344 13.777344 19.765625 16.945313 30.914062 10.582032 37.277344-1.945313 1.945312-4.53125 2.820312-7.589844 2.820312zm-72.683594-68.4375c34.027344 34.027344 59.316406 50.730469 68.972656 54.3125-3.582031-9.660156-20.289062-34.945312-54.3125-68.972656-34.03125-34.027344-59.320312-50.734375-68.976562-54.3125 3.582031 9.65625 20.285156 34.941406 54.316406 68.972656zm0 0"/></svg>